<?xml version="1.0" standalone="no"?>
<!DOCTYPE svg PUBLIC "-//W3C//DTD SVG 20010904//EN"
 "http://www.w3.org/TR/2001/REC-SVG-20010904/DTD/svg10.dtd">
<svg version="1.0" xmlns="http://www.w3.org/2000/svg"
 width="1063.000000pt" height="1280.000000pt" viewBox="0 0 1063.000000 1280.000000"
 preserveAspectRatio="xMidYMid meet">
<metadata>
Created by potrace 1.15, written by Peter Selinger 2001-2017
</metadata>
<g transform="translate(0.000000,1280.000000) scale(0.100000,-0.100000)"
fill="#000000" stroke="none">
<path d="M6685 12399 c-68 -37 -272 -109 -308 -109 -10 0 -52 -9 -95 -20 -42
-11 -138 -24 -212 -31 -74 -6 -202 -16 -285 -23 -195 -16 -869 -14 -945 2 -30
6 -109 14 -175 18 -115 6 -453 58 -580 90 l-60 14 -95 -40 c-52 -23 -123 -48
-158 -56 -44 -10 -82 -29 -130 -63 -37 -27 -90 -56 -117 -65 -28 -9 -134 -60
-235 -113 -102 -53 -290 -147 -417 -210 -257 -125 -264 -129 -643 -386 -402
-273 -602 -435 -783 -632 -86 -94 -127 -147 -148 -193 -15 -34 -83 -250 -150
-480 -163 -559 -422 -1452 -460 -1582 -17 -58 -41 -141 -54 -185 -13 -44 -56
-208 -95 -365 -62 -245 -80 -301 -126 -396 -41 -85 -56 -129 -63 -184 -7 -50
-17 -84 -36 -112 -24 -36 -25 -43 -14 -64 7 -13 20 -24 30 -24 10 0 71 -21
136 -46 65 -25 141 -54 168 -64 28 -10 91 -34 140 -53 685 -264 1050 -386
1337 -447 79 -17 159 -36 180 -42 32 -9 41 -8 72 11 33 21 36 27 36 68 0 38
12 66 68 164 37 65 72 117 77 116 6 -2 11 -34 12 -71 1 -38 4 -74 7 -81 9 -25
-36 -519 -50 -535 -7 -8 -19 -53 -27 -100 -9 -47 -31 -175 -51 -285 -55 -300
-55 -302 -71 -410 -8 -55 -20 -131 -25 -170 -6 -38 -17 -124 -25 -190 -8 -66
-30 -246 -49 -400 -34 -275 -51 -467 -81 -955 -9 -135 -23 -308 -31 -385 -8
-77 -19 -189 -25 -250 -5 -60 -16 -150 -24 -200 -8 -49 -22 -139 -30 -200 -9
-60 -22 -150 -30 -200 -17 -109 -23 -160 -30 -245 -9 -124 -25 -667 -30 -1049
-3 -211 -7 -387 -10 -391 -12 -19 70 -168 161 -296 84 -117 105 -140 144 -158
49 -22 -53 -18 1129 -47 584 -15 1274 -6 1666 22 154 10 444 30 645 44 277 19
502 42 925 96 308 38 679 83 825 99 314 34 960 155 1127 211 71 23 88 42 67
74 -20 31 -54 134 -54 165 0 15 -10 36 -24 49 -25 23 -44 74 -66 171 -7 30
-21 83 -31 116 -10 34 -23 102 -29 151 -11 98 -37 260 -46 283 -3 8 -16 80
-29 160 -22 135 -42 259 -80 490 -8 52 -20 124 -25 160 -41 265 -49 293 -123
404 l-32 50 0 240 c0 195 -4 255 -18 316 -10 41 -22 129 -28 195 -5 66 -17
161 -25 210 -18 104 -18 105 -44 375 -22 229 -24 346 -10 571 5 85 14 244 20
354 6 110 17 283 25 385 15 187 35 943 35 1298 0 181 1 192 19 192 10 0 21 -8
24 -17 3 -10 22 -54 42 -98 19 -44 38 -96 40 -115 9 -65 44 -173 70 -212 l25
-38 192 0 192 0 126 39 c69 22 159 49 200 61 41 12 165 65 275 118 110 52 305
144 434 203 129 60 237 113 240 117 3 5 46 31 94 58 49 27 108 60 132 74 24
14 61 35 84 48 58 32 75 62 68 120 -3 26 -11 61 -18 77 -18 44 -21 55 -26 105
-3 29 -14 54 -29 71 -24 25 -64 133 -64 172 0 11 -7 33 -14 50 -8 18 -22 61
-31 97 -9 36 -25 92 -36 125 -19 57 -37 119 -95 330 -13 50 -31 108 -38 130
-8 22 -22 69 -31 105 -9 36 -21 72 -25 81 -4 9 -20 65 -35 125 -15 60 -31 116
-36 125 -8 17 -42 134 -85 294 -13 50 -28 99 -33 110 -5 11 -20 63 -32 115
-12 52 -26 102 -30 110 -5 8 -19 56 -33 105 -65 246 -89 331 -96 346 -16 30
-32 104 -45 199 -7 52 -15 102 -18 110 -12 43 -33 87 -81 176 -46 85 -176 271
-231 331 -49 54 -165 153 -180 153 -3 0 -31 18 -63 39 -31 21 -143 82 -249
135 -106 52 -229 116 -275 142 -83 46 -148 82 -243 133 -131 71 -353 196 -375
211 -14 9 -45 27 -70 39 -53 26 -102 53 -188 104 -35 20 -69 37 -77 37 -8 0
-16 4 -20 10 -5 9 -167 101 -255 146 -25 13 -72 50 -105 84 -45 45 -69 62 -96
66 -24 4 -68 29 -122 70 -47 35 -89 63 -94 63 -4 -1 -39 -19 -78 -40z"/>
</g>
</svg>
